<svg version="1.0" xmlns="http://www.w3.org/2000/svg"
 width="100.000000pt" height="100.000000pt" viewBox="0 0 100.000000 100.000000"
 preserveAspectRatio="xMidYMid meet">

<g transform="translate(0.000000,100.000000) scale(0.100000,-0.100000)"
fill="#DDDDDD" stroke="none">
<path d="M141 922 c-73 -37 -94 -109 -71 -248 23 -148 70 -244 142 -291 33
-22 41 -24 69 -14 18 6 71 11 118 11 95 0 148 18 190 63 28 31 41 27 41 -12 0
-16 7 -48 15 -71 9 -26 15 -79 15 -137 0 -110 11 -136 74 -177 36 -24 49 -26
111 -24 l70 3 3 241 2 241 -67 -23 c-84 -29 -119 -30 -160 -4 -62 37 -127 160
-109 205 10 28 30 11 42 -39 16 -61 57 -121 95 -136 33 -14 61 -10 142 20 l57
21 0 195 0 194 -72 0 c-53 0 -81 -5 -103 -19 -17 -10 -53 -21 -80 -25 -101
-16 -161 -56 -199 -136 -20 -42 -24 -45 -64 -47 -45 -2 -80 -21 -97 -53 -10
-20 -15 -17 -63 41 -29 33 -52 64 -52 69 0 4 12 8 27 8 27 0 93 59 93 83 0 6
-15 26 -34 45 -39 39 -80 44 -135 16z"/>
</g>
</svg>
