
<svg version="1.0" xmlns="http://www.w3.org/2000/svg"
 width="160" height="160" viewBox="0 0 130 120"
 preserveAspectRatio="xMidYMid meet">

<g transform="translate(0.000000,80.000000) scale(0.100000,-0.100000)"
fill="#DDDDDD" stroke="none">
<path d="M85 510 c-10 -17 5 -30 34 -30 26 0 28 -3 50 -97 26 -110 42 -143 71
-143 20 0 20 0 0 -20 -11 -11 -20 -29 -20 -40 0 -26 34 -60 60 -60 26 0 60 34
60 60 0 11 -9 29 -20 40 -20 20 -20 20 50 20 70 0 70 0 50 -20 -11 -11 -20
-29 -20 -40 0 -26 34 -60 60 -60 26 0 60 34 60 60 0 11 -9 29 -19 39 -19 19
-19 20 -2 26 13 4 26 32 45 100 31 113 31 115 7 115 -15 0 -23 -17 -42 -90
l-24 -90 -125 0 -126 0 -23 98 c-29 122 -41 142 -86 142 -18 0 -37 -4 -40 -10z
m211 -321 c10 -17 -13 -36 -27 -22 -12 12 -4 33 11 33 5 0 12 -5 16 -11z m180
0 c10 -17 -13 -36 -27 -22 -12 12 -4 33 11 33 5 0 12 -5 16 -11z"/>
<path d="M275 500 c-24 -27 -14 -55 40 -113 l45 -49 45 49 c56 61 65 88 36
116 -18 19 -25 20 -52 10 -21 -8 -38 -9 -50 -3 -27 15 -44 12 -64 -10z m62
-42 l23 -21 25 23 c14 13 28 21 31 17 7 -7 -44 -77 -57 -77 -9 0 -59 62 -59
73 0 13 14 7 37 -15z"/>
</g>
</svg>
