
<svg version="1.0" xmlns="http://www.w3.org/2000/svg"
 width="160" height="160" viewBox="0 0 120 120"
 preserveAspectRatio="xMidYMid meet">

<g transform="translate(0.000000,80.000000) scale(0.100000,-0.100000)"
fill="#DDDDDD" stroke="none">
<path d="M223 403 c-18 -7 -16 -40 3 -47 20 -8 268 -8 288 0 21 8 21 40 0 48
-19 7 -273 7 -291 -1z"/>
<path d="M120 380 c0 -13 7 -20 20 -20 13 0 20 7 20 20 0 13 -7 20 -20 20 -13
0 -20 -7 -20 -20z"/>
<path d="M120 284 c-11 -12 -10 -18 3 -32 16 -15 18 -15 34 0 13 14 14 20 3
32 -7 9 -16 16 -20 16 -4 0 -13 -7 -20 -16z"/>
<path d="M210 285 c-10 -12 -10 -18 0 -30 10 -12 41 -15 160 -15 119 0 150 3
160 15 10 12 10 18 0 30 -10 12 -41 15 -160 15 -119 0 -150 -3 -160 -15z"/>
<path d="M120 174 c-11 -12 -10 -18 3 -32 16 -15 18 -15 34 0 13 14 14 20 3
32 -7 9 -16 16 -20 16 -4 0 -13 -7 -20 -16z"/>
<path d="M210 175 c-10 -12 -10 -18 0 -30 18 -22 302 -22 320 0 10 12 10 18 0
30 -10 12 -41 15 -160 15 -119 0 -150 -3 -160 -15z"/>
</g>
</svg>
