<svg version="1.0" xmlns="http://www.w3.org/2000/svg"
 width="120pt" height="120pt" viewBox="0 0 120.000000 120.000000"
 preserveAspectRatio="xMidYMid meet">

<g transform="translate(0.000000,91.000000) scale(0.100000,-0.100000)"
fill="#DDDDDD" stroke="none">
<path d="M577 884 c-4 -4 -7 -24 -7 -44 0 -34 -3 -38 -40 -49 -43 -13 -66 -9
-154 28 -142 57 -276 -77 -207 -209 l21 -40 -74 0 c-53 0 -79 -4 -90 -15 -25
-25 -29 -54 -12 -80 15 -23 22 -25 101 -25 l85 0 0 -195 c0 -182 1 -196 20
-215 21 -21 65 -27 75 -10 4 7 12 7 25 0 28 -15 48 -12 70 10 18 18 20 33 20
130 0 61 3 110 6 110 3 0 32 -21 64 -47 58 -47 59 -49 59 -100 l1 -53 185 0
185 0 0 115 0 115 -184 0 -185 0 -3 -40 -3 -40 -63 51 -63 52 3 56 3 56 88 5
c94 5 107 12 107 62 0 42 -32 58 -117 58 l-73 0 20 33 c11 17 20 44 20 58 0
15 7 32 15 39 8 7 15 19 15 26 0 8 16 21 36 29 45 19 42 19 46 -7 3 -23 5 -23
168 -23 l165 0 0 80 0 80 -161 3 c-88 1 -163 -1 -167 -4z m301 -81 l-3 -48
-135 0 -135 0 -3 48 -3 47 141 0 141 0 -3 -47z m-517 -13 c14 -8 18 -17 13
-35 -7 -29 19 -75 42 -75 13 0 15 -6 9 -27 -7 -32 -52 -83 -73 -83 -7 0 -12
-8 -10 -17 3 -16 19 -19 118 -23 107 -5 115 -6 115 -25 0 -18 -8 -20 -95 -25
l-95 -5 -5 -60 -5 -60 -20 40 c-23 45 -61 58 -89 29 -37 -36 9 -108 54 -84 10
5 23 3 38 -9 22 -16 23 -22 20 -141 l-3 -125 -25 0 -25 0 -3 113 c-2 90 -5
112 -17 112 -12 0 -15 -20 -15 -108 0 -108 -8 -136 -36 -125 -11 4 -14 42 -14
188 0 101 -4 195 -10 209 -9 24 -13 25 -97 28 -83 3 -88 4 -91 26 -3 21 -1 22
90 24 142 2 143 2 147 13 2 5 -9 17 -24 25 -115 64 -76 229 53 230 18 0 42 -5
53 -10z m94 -55 c0 -30 -39 -27 -43 3 -3 20 0 23 20 20 15 -2 23 -10 23 -23z
m-137 -348 c2 -10 -3 -17 -12 -17 -18 0 -29 16 -21 31 9 14 29 6 33 -14z m560
-189 l-3 -83 -152 -3 -153 -3 0 86 0 85 155 0 156 0 -3 -82z"/>
<path d="M640 806 c0 -11 9 -16 26 -16 31 0 28 23 -4 28 -15 2 -22 -2 -22 -12z"/>
<path d="M710 805 c0 -11 7 -15 23 -13 12 2 22 8 22 13 0 6 -10 11 -22 13 -16
2 -23 -2 -23 -13z"/>
<path d="M777 814 c-10 -11 3 -24 24 -24 10 0 19 7 19 15 0 15 -31 21 -43 9z"/>
<path d="M254 719 c-10 -17 13 -36 27 -22 12 12 4 33 -11 33 -5 0 -12 -5 -16
-11z"/>
<path d="M330 710 c0 -11 7 -20 15 -20 8 0 15 9 15 20 0 11 -7 20 -15 20 -8 0
-15 -9 -15 -20z"/>
<path d="M254 658 c-9 -14 23 -38 51 -38 28 0 60 24 51 38 -4 7 -15 8 -30 2
-13 -5 -29 -4 -37 1 -19 12 -26 11 -35 -3z"/>
<path d="M617 244 c-4 -4 -7 -13 -7 -21 0 -11 23 -13 113 -11 92 2 112 6 112
18 0 12 -20 16 -106 18 -58 1 -108 -1 -112 -4z"/>
<path d="M612 163 c2 -10 10 -18 18 -18 8 0 16 8 18 18 2 12 -3 17 -18 17 -15
0 -20 -5 -18 -17z"/>
<path d="M674 169 c-7 -12 15 -31 31 -26 6 2 11 11 13 20 4 19 -32 24 -44 6z"/>
<path d="M747 173 c-12 -11 -8 -23 8 -23 8 0 15 7 15 15 0 16 -12 20 -23 8z"/>
<path d="M640 585 c0 -13 10 -15 55 -13 30 2 55 8 55 13 0 6 -25 11 -55 13
-45 2 -55 0 -55 -13z"/>
<path d="M640 515 c0 -12 17 -15 90 -15 73 0 90 3 90 15 0 12 -17 15 -90 15
-73 0 -90 -3 -90 -15z"/>
</g>
</svg>
