
<svg version="1.0" xmlns="http://www.w3.org/2000/svg"
 width="160" height="160" viewBox="20 0 90 50"
 preserveAspectRatio="xMidYMid meet">

<g transform="translate(0.000000,64.000000) scale(0.100000,-0.100000)"
fill="#888888" stroke="none">
<path d="M379 733 c-13 -16 -12 -17 3 -5 23 19 60 11 73 -14 8 -16 14 -19 26
-11 20 13 47 3 56 -20 4 -10 15 -24 25 -31 33 -24 19 -32 -57 -32 -63 0 -78
-3 -92 -20 -22 -25 -123 -29 -143 -5 -16 19 -9 45 15 59 11 6 25 17 31 25 6 8
20 12 33 8 13 -3 21 -1 21 8 0 20 -39 7 -82 -27 -67 -52 -40 -98 55 -98 50 0
57 -2 57 -20 0 -11 -4 -20 -10 -20 -15 0 -172 -102 -166 -108 3 -3 41 18 84
47 43 28 81 51 85 51 4 0 7 -34 7 -75 l0 -75 -31 0 c-19 0 -28 -4 -23 -11 10
-16 47 -3 116 42 68 43 101 47 106 12 2 -16 -16 -40 -73 -95 -93 -88 -108 -97
-162 -98 -24 0 -43 -4 -43 -10 0 -15 56 -12 96 5 26 11 40 12 53 4 30 -19 133
40 165 96 28 47 46 58 46 27 0 -30 22 -42 75 -40 l50 1 -55 6 c-47 5 -55 9
-58 28 -2 17 6 26 35 39 21 10 44 26 51 36 16 21 35 23 51 4 6 -7 22 -11 36
-8 18 3 27 -1 32 -14 4 -11 13 -24 21 -30 25 -19 10 -48 -28 -55 -35 -6 -35
-6 -5 -8 33 -1 55 14 55 37 0 23 -51 82 -72 82 -48 0 -58 16 -58 95 0 97 -8
105 -108 105 l-77 1 -39 50 c-31 41 -44 50 -62 46 -15 -2 -30 3 -40 14 -21 24
-57 24 -75 2z m377 -140 c17 -17 13 -18 -74 -21 -51 -1 -133 -1 -184 0 -87 3
-91 4 -74 21 15 15 38 17 166 17 128 0 151 -2 166 -17z m14 -103 c0 -28 -7
-46 -24 -63 -33 -33 -88 -57 -130 -57 -33 0 -36 2 -30 24 4 17 -1 31 -16 46
-25 25 -45 21 -106 -21 -23 -16 -44 -25 -48 -22 -3 4 -6 35 -6 70 l0 63 180 0
180 0 0 -40z m-160 -139 c0 -14 -23 -29 -86 -57 l-59 -26 45 46 c32 33 52 46
72 46 15 0 28 -4 28 -9z m-35 -61 c-9 -14 -101 -60 -121 -60 -26 0 -10 24 22
31 16 3 43 13 59 22 35 19 49 21 40 7z"/>
<path d="M510 406 c0 -2 8 -10 18 -17 15 -13 16 -12 3 4 -13 16 -21 21 -21 13z"/>
</g>
</svg>
