
<svg version="1.0" xmlns="http://www.w3.org/2000/svg"
 width="160" height="160" viewBox="0 0 120 120"
 preserveAspectRatio="xMidYMid meet">

<g transform="translate(0.000000,64.000000) scale(0.100000,-0.100000)"
fill="#DDDDDD" stroke="none">
<path d="M115 531 c-11 -5 -31 -21 -45 -36 -34 -36 -35 -112 -3 -147 l23 -24
-28 -21 c-29 -22 -62 -78 -62 -107 0 -29 38 -19 45 13 3 15 20 41 36 57 25 24
39 29 79 29 40 0 54 -5 79 -29 16 -16 33 -42 36 -57 9 -39 41 -39 50 0 10 45
53 79 115 91 111 20 156 118 89 194 -18 21 -43 38 -63 41 -43 8 -99 -15 -123
-51 -25 -39 -24 -106 3 -136 l22 -23 -33 -30 -33 -30 -31 27 -31 28 21 40 c27
52 21 103 -19 143 -31 31 -91 44 -127 28z m100 -56 c50 -49 15 -135 -55 -135
-41 0 -80 39 -80 80 0 41 39 80 80 80 19 0 40 -9 55 -25z m280 0 c16 -15 25
-36 25 -55 0 -19 -9 -40 -25 -55 -15 -16 -36 -25 -55 -25 -19 0 -40 9 -55 25
-16 15 -25 36 -25 55 0 19 9 40 25 55 15 16 36 25 55 25 19 0 40 -9 55 -25z"/>
<path d="M480 260 c0 -25 -25 -36 -45 -20 -12 10 -18 10 -30 0 -13 -11 -13
-15 -2 -29 20 -24 10 -51 -19 -51 -17 0 -24 -5 -24 -20 0 -13 7 -20 20 -20 26
0 37 -27 21 -53 -16 -25 3 -41 29 -25 23 15 50 3 50 -22 0 -13 7 -20 20 -20
13 0 20 7 20 20 0 25 25 36 45 20 12 -10 18 -10 30 0 13 11 13 15 2 29 -20 24
-10 51 19 51 17 0 24 5 24 20 0 13 -7 20 -20 20 -26 0 -37 27 -21 53 17 26 0
43 -26 26 -26 -16 -53 -5 -53 21 0 13 -7 20 -20 20 -13 0 -20 -7 -20 -20z m60
-80 c11 -11 20 -29 20 -40 0 -11 -9 -29 -20 -40 -11 -11 -29 -20 -40 -20 -26
0 -60 34 -60 60 0 11 9 29 20 40 11 11 29 20 40 20 11 0 29 -9 40 -20z"/>
<path d="M484 149 c-10 -17 13 -36 27 -22 12 12 4 33 -11 33 -5 0 -12 -5 -16
-11z"/>
</g>
</svg>
